<?xml version="1.0" encoding="UTF-8" standalone="no"?>
<svg width="11px" height="15px" viewBox="0 0 11 15" version="1.1" xmlns="http://www.w3.org/2000/svg" xmlns:xlink="http://www.w3.org/1999/xlink" xmlns:sketch="http://www.bohemiancoding.com/sketch/ns">
    <!-- Generator: Sketch 3.3.2 (12043) - http://www.bohemiancoding.com/sketch -->
    <title>noun_60282_cc 2</title>
    <desc>Created with Sketch.</desc>
    <defs></defs>
    <g id="Challenge" stroke="none" stroke-width="1" fill="none" fill-rule="evenodd" sketch:type="MSPage">
        <g id="Desktop" sketch:type="MSArtboardGroup" transform="translate(-714.000000, -1079.000000)" fill="#4D99D3">
            <g id="2014-WINNER-+-noun_60282_cc-9" sketch:type="MSLayerGroup" transform="translate(714.000000, 1079.000000)">
                <g id="noun_60282_cc-2" sketch:type="MSShapeGroup">
                    <rect id="Rectangle-path" x="5.95235385" y="4.97152174" width="5.02767692" height="4.56766304"></rect>
                    <rect id="Rectangle-path" x="0.104584615" y="4.97152174" width="5.02767692" height="4.56766304"></rect>
                    <rect id="Rectangle-path" x="5.95235385" y="10.3291304" width="5.02767692" height="4.5675"></rect>
                    <rect id="Rectangle-path" x="0.104584615" y="10.3291304" width="5.02767692" height="4.5675"></rect>
                    <path d="M3.75387692,4.36222826 L8.07230769,4.36222826 C8.33918462,4.23586957 8.57306154,4.08211957 8.78950769,3.90619565 C9.57406154,3.26836957 9.65698462,2.12380435 8.97498462,1.34934783 C8.29281538,0.574728261 7.10396923,0.463532609 6.31941538,1.10119565 C5.97503077,1.38097826 5.68158462,1.71065217 5.45346154,2.16179348 C5.27915385,1.58184783 5.00296923,1.14521739 4.65570769,0.760434783 C3.93630769,-0.0363586957 2.70836923,-0.141521739 1.91281538,0.525326087 C1.11726154,1.19201087 1.05549231,2.37815217 1.77472308,3.17494565 C2.24196923,3.6926087 2.81684615,4.10527174 3.75387692,4.36222826 L3.75387692,4.36222826 Z M6.83776923,1.94592391 C7.26253846,1.60076087 7.86855385,1.61853261 8.19195385,1.98554348 C8.51501538,2.35255435 8.43293846,2.93005435 8.00816923,3.27521739 C7.5834,3.62021739 7.06098462,3.83266304 6.00126154,3.76581522 C6.11430769,2.75755435 6.41316923,2.29108696 6.83776923,1.94592391 L6.83776923,1.94592391 Z M2.63052308,1.32048913 C3.00773846,1.00434783 3.62864615,1.09793478 4.01821538,1.52918478 C4.40761538,1.96059783 4.65266154,2.4926087 4.63895385,3.54472826 C3.54843077,3.41804348 3.04243077,3.10451087 2.65303077,2.67326087 C2.26363077,2.24201087 2.25364615,1.63630435 2.63052308,1.32048913 L2.63052308,1.32048913 Z" id="Shape"></path>
                </g>
            </g>
        </g>
    </g>
</svg>