<?xml version="1.0" encoding="UTF-8" standalone="no"?>
<svg width="37px" height="37px" viewBox="0 0 37 37" version="1.1" xmlns="http://www.w3.org/2000/svg" xmlns:xlink="http://www.w3.org/1999/xlink" xmlns:sketch="http://www.bohemiancoding.com/sketch/ns">
    <!-- Generator: Sketch 3.3.3 (12081) - http://www.bohemiancoding.com/sketch -->
    <title>Shape</title>
    <desc>Created with Sketch.</desc>
    <defs></defs>
    <g id="Page-1" stroke="none" stroke-width="1" fill="none" fill-rule="evenodd" sketch:type="MSPage">
        <g id="social-pinterest-512px" sketch:type="MSLayerGroup" fill="#666666">
            <path d="M18.5,0 C8.28370536,0 0,8.28370536 0,18.5 C0,26.0734375 4.55892857,32.5814732 11.0752232,35.4473214 C11.0256696,34.1589286 11.0669643,32.60625 11.3973214,31.2022321 C11.7524554,29.6991071 13.7758929,21.1180804 13.7758929,21.1180804 C13.7758929,21.1180804 13.18125,19.9370536 13.18125,18.1944196 C13.18125,15.4524554 14.7669643,13.4042411 16.7491071,13.4042411 C18.4339286,13.4042411 19.2433036,14.6678571 19.2433036,16.1792411 C19.2433036,17.8723214 18.1613839,20.3995536 17.6080357,22.7450893 C17.1455357,24.7107143 18.5908482,26.3046875 20.5316964,26.3046875 C24.0334821,26.3046875 26.3955357,21.8035714 26.3955357,16.4683036 C26.3955357,12.4131696 23.6618304,9.38214286 18.6982143,9.38214286 C13.0904018,9.38214286 9.58861607,13.5694196 9.58861607,18.2439732 C9.58861607,19.8544643 10.0676339,20.9941964 10.8109375,21.8696429 C11.1495536,22.2743304 11.1991071,22.4395089 11.0752232,22.9020089 C10.984375,23.240625 10.7861607,24.0582589 10.6953125,24.3886161 C10.5714286,24.859375 10.1915179,25.0245536 9.7703125,24.8511161 C7.18526786,23.7939732 5.97946429,20.9694196 5.97946429,17.7814732 C5.97946429,12.5287946 10.4145089,6.22723214 19.2020089,6.22723214 C26.2633929,6.22723214 30.9131696,11.3395089 30.9131696,16.8234375 C30.9131696,24.0830357 26.8745536,29.5008929 20.928125,29.5008929 C18.9294643,29.5008929 17.0546875,28.4189732 16.4104911,27.1966518 C16.4104911,27.1966518 15.3368304,31.4582589 15.1055804,32.2841518 C14.7174107,33.7129464 13.9493304,35.1334821 13.2473214,36.2484375 C14.9073661,36.7357143 16.6665179,37.0082589 18.4917411,37.0082589 C28.7080357,37.0082589 36.9917411,28.7245536 36.9917411,18.5082589 C37,8.28370536 28.7162946,0 18.5,0 L18.5,0 Z" id="Shape" sketch:type="MSShapeGroup"></path>
        </g>
    </g>
</svg>