<?xml version="1.0" encoding="UTF-8" standalone="no"?>
<svg width="68px" height="58px" viewBox="0 0 68 58" version="1.1" xmlns="http://www.w3.org/2000/svg" xmlns:xlink="http://www.w3.org/1999/xlink" xmlns:sketch="http://www.bohemiancoding.com/sketch/ns">
    <!-- Generator: Sketch 3.3.2 (12043) - http://www.bohemiancoding.com/sketch -->
    <title>noun_41986_cc</title>
    <desc>Created with Sketch.</desc>
    <defs></defs>
    <g id="Welcome" stroke="none" stroke-width="1" fill="none" fill-rule="evenodd" sketch:type="MSPage">
        <g id="Homepage-(second-edition)" sketch:type="MSArtboardGroup" transform="translate(-674.000000, -3003.000000)">
            <g id="noun_41986_cc" sketch:type="MSLayerGroup" transform="translate(671.000000, 2995.000000)">
                <rect id="Rectangle-path" sketch:type="MSShapeGroup" x="0" y="0" width="74" height="74"></rect>
                <path d="M69.20406,29.26182 L52.31726,29.26182 L64.98828,16.59228 C65.4567,16.12238 65.4567,15.36314 64.98828,14.89694 C64.5206,14.42704 63.75988,14.42704 63.29146,14.89694 L48.92732,29.26182 L47.06992,29.26182 L63.70956,12.61996 C64.32672,11.9991 64.49988,11.12738 64.29564,10.33558 C64.74852,9.86938 64.74852,9.12494 64.28602,8.65726 C63.8213,8.19476 63.07908,8.19476 62.60548,8.64394 C61.81516,8.436 60.93826,8.60546 60.31518,9.2315 L40.28856,29.26182 L4.79594,29.26182 C4.18988,29.26182 3.7,29.75244 3.7,30.3585 L3.7,64.59386 C3.7,65.19992 4.18988,65.6898 4.79594,65.6898 L69.20332,65.6898 C69.80938,65.6898 70.29926,65.19992 70.29926,64.59386 L70.29926,30.3585 C70.3,29.75244 69.81012,29.26182 69.20406,29.26182 L69.20406,29.26182 Z M68.1096,63.50014 L5.8904,63.50014 L5.8904,31.45222 L38.09742,31.45222 L22.26142,47.29118 C21.64278,47.90612 21.46888,48.78006 21.67534,49.57186 L20.8791,50.36218 C20.41142,50.82986 20.41142,51.58688 20.8791,52.05678 C21.11516,52.2921 21.42596,52.40902 21.7301,52.40902 C22.03942,52.40902 22.34356,52.29284 22.57888,52.05678 L23.3692,51.26646 C23.56086,51.31604 23.75992,51.38634 23.9538,51.38634 C24.56948,51.38634 25.18294,51.15102 25.6521,50.6789 L44.87656,31.45222 L46.73544,31.45222 L45.35016,32.83824 C44.88248,33.30444 44.88248,34.06738 45.35016,34.53358 C45.584,34.7689 45.89332,34.8836 46.1982,34.8836 C46.50974,34.8836 46.81166,34.76964 47.04624,34.53358 L50.12464,31.45296 L68.1096,31.45296 L68.1096,63.50014 L68.1096,63.50014 Z M14.48846,56.10458 L55.17144,56.10458 L55.17144,58.29498 L14.48846,58.29498 L14.48846,56.10458 L14.48846,56.10458 Z M54.96646,44.29196 C54.96646,42.61512 56.1475,41.29866 58.18694,40.89832 L58.18694,39.08976 L60.0547,39.08976 L60.0547,40.7666 C61.32972,40.82506 62.18812,41.0922 62.81564,41.39708 L62.26508,43.54826 C61.7678,43.33884 60.8909,42.90224 59.5182,42.90224 C58.28018,42.90224 57.88058,43.4343 57.88058,43.96858 C57.88058,44.59684 58.54732,44.99644 60.16644,45.6062 C62.43454,46.40762 63.34844,47.4562 63.34844,49.17078 C63.34844,50.86612 62.14964,52.31578 59.95702,52.6954 L59.95702,54.64086 L58.09074,54.64086 L58.09074,52.8323 C56.81202,52.7731 55.57622,52.43048 54.85028,52.01238 L55.42082,49.78128 C56.22224,50.22158 57.3463,50.62118 58.5858,50.62118 C59.67138,50.62118 60.41582,50.2016 60.41582,49.43644 C60.41582,48.7142 59.80606,48.2554 58.39636,47.78254 C56.35544,47.09434 54.96646,46.14196 54.96646,44.29196 L54.96646,44.29196 Z" id="Shape" fill="#000000" sketch:type="MSShapeGroup"></path>
            </g>
        </g>
    </g>
</svg>