<?xml version="1.0" encoding="UTF-8" standalone="no"?>
<svg width="37px" height="37px" viewBox="0 0 37 37" version="1.1" xmlns="http://www.w3.org/2000/svg" xmlns:xlink="http://www.w3.org/1999/xlink" xmlns:sketch="http://www.bohemiancoding.com/sketch/ns">
    <!-- Generator: Sketch 3.3.3 (12081) - http://www.bohemiancoding.com/sketch -->
    <title>Slice 1</title>
    <desc>Created with Sketch.</desc>
    <defs></defs>
    <g id="Page-1" stroke="none" stroke-width="1" fill="none" fill-rule="evenodd" sketch:type="MSPage">
        <g id="instagram-glyph" sketch:type="MSLayerGroup" fill="#666666">
            <path d="M32.7316996,15.6519604 L29.5106984,15.6519604 C29.7453929,16.5629539 29.8839868,17.5148064 29.8839868,18.4990194 C29.8839868,24.7873916 24.7873916,29.8839868 18.5,29.8839868 C12.2129353,29.8839868 7.11601322,24.7873916 7.11601322,18.4990194 C7.11601322,17.5148064 7.25526088,16.5629539 7.4899553,15.6519604 L4.26862731,15.6519604 L4.26862731,31.3068626 C4.26862731,32.0916833 4.90602859,32.7287577 5.69313745,32.7287577 L31.3071894,32.7287577 C32.0942983,32.7287577 32.7316996,32.0920102 32.7316996,31.3068626 L32.7316996,15.6519604 L32.7316996,15.6519604 Z M32.7316996,5.69117621 C32.7316996,4.90570172 32.0942983,4.26830044 31.3071894,4.26830044 L27.038889,4.26830044 C26.2527607,4.26830044 25.6156863,4.90570172 25.6156863,5.69117621 L25.6156863,9.96111101 C25.6156863,10.7465855 26.2524339,11.3839868 27.038889,11.3839868 L31.3071894,11.3839868 C32.0942983,11.3839868 32.7316996,10.7465855 32.7316996,9.96111101 L32.7316996,5.69117621 L32.7316996,5.69117621 Z M18.4996731,11.3839868 C14.5696857,11.3839868 11.3843137,14.5690319 11.3843137,18.4990194 C11.3843137,22.4283531 14.5696857,25.6150326 18.4996731,25.6150326 C22.4296606,25.6150326 25.6156863,22.4283531 25.6156863,18.4990194 C25.6156863,14.5690319 22.4296606,11.3839868 18.4996731,11.3839868 L18.4996731,11.3839868 Z M32.7316996,36.9993463 L4.26830044,36.9993463 C1.91122321,36.9993463 0,35.0874693 0,32.7284308 L0,4.26830044 C0,1.91089634 1.91122321,0 4.26830044,0 L32.7316996,0 C35.0891037,0 37,1.91089634 37,4.26830044 L37,32.7284308 C36.9996731,35.0874693 35.0891037,36.9993463 32.7316996,36.9993463 L32.7316996,36.9993463 Z" id="Shape" sketch:type="MSShapeGroup"></path>
        </g>
    </g>
</svg>