<?xml version="1.0" encoding="UTF-8" standalone="no"?>
<svg width="37px" height="30px" viewBox="0 0 37 30" version="1.1" xmlns="http://www.w3.org/2000/svg" xmlns:xlink="http://www.w3.org/1999/xlink" xmlns:sketch="http://www.bohemiancoding.com/sketch/ns">
    <!-- Generator: Sketch 3.3.2 (12043) - http://www.bohemiancoding.com/sketch -->
    <title>layer1</title>
    <desc>Created with Sketch.</desc>
    <defs></defs>
    <g id="Home-v4" stroke="none" stroke-width="1" fill="none" fill-rule="evenodd" sketch:type="MSPage">
        <g id="Desktop" sketch:type="MSArtboardGroup" transform="translate(-586.000000, -4392.000000)" fill="#666666">
            <g id="Footer" sketch:type="MSLayerGroup" transform="translate(-1.000000, 4234.000000)">
                <g id="layer1" transform="translate(587.000000, 158.000000)" sketch:type="MSShapeGroup">
                    <path d="M37,3.55125234 C35.6387224,4.15371039 34.1756186,4.56051486 32.6402442,4.74368449 C34.2075472,3.80652753 35.4113394,2.32244456 35.9778553,0.553813702 C34.511084,1.42166323 32.8866117,2.0518873 31.157293,2.39153675 C29.7729319,0.919507243 27.8000501,0 25.6166126,0 C21.4244817,0 18.0256023,3.3908982 18.0256023,7.57345081 C18.0256023,8.16708399 18.0926954,8.74500463 18.2221354,9.29946405 C11.9134443,8.9837063 6.32012501,5.9684027 2.57628799,1.3863638 C1.92283159,2.50475323 1.54831845,3.80566656 1.54831845,5.19353705 C1.54831845,7.82119258 2.88845418,10.1393323 4.92519299,11.4972844 C3.68084288,11.4578954 2.51048931,11.1171697 1.48683443,10.5502264 C1.4859715,10.5816515 1.4859715,10.6135071 1.4859715,10.6453626 C1.4859715,14.314782 4.10260163,17.3757166 7.5752618,18.0718042 C6.93841687,18.2448575 6.2677018,18.3371957 5.57541339,18.3371957 C5.08613009,18.3371957 4.61065373,18.2896276 4.14725844,18.201379 C5.1133125,21.2102254 7.916552,23.3996513 11.2384145,23.4607796 C8.64033748,25.4922191 5.36744642,26.7029466 1.81086597,26.7029466 C1.19818318,26.7029466 0.593913987,26.6670015 0,26.5970483 C3.35940014,28.7460091 7.34938895,30 11.6362269,30 C25.5987068,30 33.2339424,18.4598828 33.2339424,8.45141664 C33.2339424,8.12317494 33.2266075,7.79643992 33.2119376,7.47142683 C34.6955361,6.40383415 35.9821699,5.07020426 37,3.55125234 L37,3.55125234 L37,3.55125234 Z" id="path5"></path>
                </g>
            </g>
        </g>
    </g>
</svg>