<?xml version="1.0" encoding="UTF-8" standalone="no"?>
<svg width="149px" height="67px" viewBox="0 0 149 67" version="1.1" xmlns="http://www.w3.org/2000/svg" xmlns:xlink="http://www.w3.org/1999/xlink" xmlns:sketch="http://www.bohemiancoding.com/sketch/ns">
    <!-- Generator: Sketch 3.3.2 (12043) - http://www.bohemiancoding.com/sketch -->
    <title>noun_162286_cc</title>
    <desc>Created with Sketch.</desc>
    <defs></defs>
    <g id="2015-Challenge-Before-voting" stroke="none" stroke-width="1" fill="none" fill-rule="evenodd" sketch:type="MSPage">
        <g id="Desktop" sketch:type="MSArtboardGroup" transform="translate(-680.000000, -2758.000000)" fill="#8BD22C">
            <g id="Jury-voted" sketch:type="MSLayerGroup" transform="translate(563.000000, 2758.000000)">
                <g id="noun_162286_cc" transform="translate(117.000000, 0.000000)" sketch:type="MSShapeGroup">
                    <path d="M11.3970545,0.520632933 C7.52264896,0.520632933 4.40078627,3.73784893 4.40078627,7.66063293 C4.40078627,11.5832356 7.52264896,14.7440569 11.3970545,14.7440569 C15.2714604,14.7440569 18.4492933,11.5832356 18.4492933,7.66063293 C18.4492933,3.73784893 15.2714604,0.520632933 11.3970545,0.520632933 L11.3970545,0.520632933 Z M39.326159,0.520632933 C35.451753,0.520632933 32.3298903,3.73784893 32.3298903,7.66063293 C32.3298903,11.5832356 35.451753,14.7440569 39.326159,14.7440569 C43.2005649,14.7440569 46.3783978,11.5832356 46.3783978,7.66063293 C46.3783978,3.73784893 43.2005649,0.520632933 39.326159,0.520632933 L39.326159,0.520632933 Z M67.3112336,0.520632933 C63.4368276,0.520632933 60.3149649,3.73784893 60.3149649,7.66063293 C60.3149649,10.6025849 62.0561649,13.1044409 64.5686963,14.1772089 L64.6245769,14.1772089 C65.449156,14.5219236 66.3611381,14.7440569 67.311144,14.7440569 C71.18555,14.7440569 74.3633828,11.5832356 74.3633828,7.66063293 C74.3633828,3.73784893 71.18555,0.520632933 67.311144,0.520632933 L67.3112336,0.520632933 Z M95.2963082,0.520632933 C94.3277112,0.520632933 93.4472515,0.7244516 92.609741,1.0872996 C92.3909649,1.1797796 92.2008993,1.31324093 91.9940694,1.4272996 C91.3991918,1.75841427 90.8452216,2.1317796 90.3709351,2.61720893 C89.1061709,3.91192893 88.3000396,5.69915027 88.3000396,7.66063293 C88.3000396,10.1122596 89.5178963,12.2831823 91.3783978,13.5539663 L91.4342784,13.5539663 C91.6110545,13.6736463 91.8062963,13.7913316 91.9939799,13.8939663 C92.1814575,13.9955129 92.3563799,14.0930703 92.5536813,14.1772089 L92.6095619,14.1772089 C93.0137828,14.3458489 93.4582306,14.4834809 93.8968754,14.5739663 C94.3518903,14.6718863 94.8125828,14.7407929 95.2961291,14.7444196 C95.5372216,14.7444196 95.7886485,14.7117796 96.023741,14.6882063 C96.2695978,14.6628196 96.5134664,14.6247396 96.751353,14.5757796 C97.4337231,14.4361529 98.057956,14.2192783 98.6543381,13.8957796 C98.8628381,13.7815396 99.0747858,13.6896036 99.2700097,13.5557796 C99.6453948,13.3015503 99.9577888,12.9691663 100.277472,12.6491129 C101.573168,11.3663609 102.404338,9.6384356 102.404338,7.66244627 C102.404338,5.68555027 101.574099,3.9160996 100.277472,2.61902227 C99.9465769,2.2840996 99.6044157,2.03295293 99.2140396,1.76911293 C99.0330993,1.64580627 98.8465709,1.5360996 98.6543381,1.42911293 C98.4685396,1.32575293 98.2898963,1.1748836 98.0946366,1.08911293 L98.038756,1.08911293 C97.6013828,0.9007076 97.1717649,0.7880996 96.6954724,0.692536933 C96.4767858,0.6472036 96.2491799,0.659896933 96.0238306,0.6363236 C95.8046515,0.612750267 95.5766246,0.525710267 95.3521888,0.523896933 C95.333159,0.5237156 95.3152933,0.523896933 95.2963082,0.523896933 L95.2963082,0.520632933 Z M123.337353,0.520632933 C122.853054,0.520632933 122.39426,0.5949796 121.938099,0.691086267 C118.745007,1.3603876 116.341084,4.22853693 116.341084,7.6609956 C116.341084,10.6029476 118.082284,13.1048036 120.594816,14.1775716 L120.650696,14.1775716 C121.475275,14.5222863 122.387257,14.7444196 123.337263,14.7444196 C123.803186,14.7444196 124.29506,14.6610063 124.736517,14.5739663 C127.94032,13.9153636 130.389502,11.0929103 130.389502,7.66063293 C130.389502,3.73784893 127.211669,0.520632933 123.337263,0.520632933 L123.337353,0.520632933 Z M4.06496537,15.9339663 C2.12023104,15.9339663 0.53884597,17.8143929 0.53884597,20.1272996 L0.53884597,40.3006329 C0.53884597,42.6133583 2.12023104,44.4373903 4.06496537,44.4373903 L13.6358604,44.4373903 L13.6358604,41.2640569 C13.6358604,38.7670969 15.3424396,36.7307236 17.4418306,36.7307236 L21.359741,36.7307236 C18.9106127,35.3239396 17.2739201,32.6630543 17.2739201,29.5905423 C17.2739201,26.1321529 19.3356097,23.1207503 22.3112336,21.8838756 L22.3112336,20.1272996 C22.3112336,17.8143929 20.7298485,15.9339663 18.7851142,15.9339663 L4.06496537,15.9339663 L4.06496537,15.9339663 Z M31.9940694,15.9339663 C30.0493351,15.9339663 28.46795,17.8143929 28.46795,20.1272996 L28.46795,21.8838756 C31.4616276,23.1207503 33.5612336,26.1321529 33.5612336,29.5905423 C33.5612336,32.6630543 31.8878963,35.3237583 29.4194425,36.7307236 L33.337353,36.7307236 C35.436744,36.7307236 37.1433231,38.7670969 37.1433231,41.2640569 L37.1433231,44.4373903 L41.5649649,44.4373903 L41.5649649,41.2640569 C41.5649649,38.7670969 43.271544,36.7307236 45.3709351,36.7307236 L49.2888455,36.7307236 C46.8397172,35.3239396 45.2030246,32.6632356 45.2030246,29.5905423 C45.2030246,26.1321529 47.2647142,23.1207503 50.2403381,21.8838756 L50.2403381,20.1272996 C50.2403381,19.2599823 50.0051918,18.4735396 49.6246664,17.8038756 C49.4978604,17.5808356 49.3365231,17.3704889 49.1769052,17.1806329 C48.5384694,16.4213903 47.6865948,15.9339663 46.7142187,15.9339663 L31.9940694,15.9339663 L31.9940694,15.9339663 Z M59.979144,15.9339663 C58.0344097,15.9339663 56.4530246,17.8143929 56.4530246,20.1272996 L56.4530246,21.8838756 C59.4467022,23.1207503 61.5463082,26.1321529 61.5463082,29.5905423 C61.5463082,32.6630543 59.8729709,35.3237583 57.4045172,36.7307236 L61.3224276,36.7307236 C63.4218187,36.7307236 65.1283978,38.7670969 65.1283978,41.2640569 L65.1283978,44.4373903 L69.5500396,44.4373903 L69.5500396,41.2640569 C69.5500396,38.7670969 71.2566187,36.7307236 73.3560097,36.7307236 L77.2739201,36.7307236 C74.8247918,35.3239396 73.1880993,32.6632356 73.1880993,29.5905423 C73.1880993,26.1321529 75.2497888,23.1207503 78.2254127,21.8838756 L78.2254127,20.1272996 C78.2254127,19.2599823 77.9902664,18.4735396 77.609741,17.8038756 C77.4829351,17.5808356 77.3215978,17.3704889 77.1619799,17.1806329 C76.523544,16.4213903 75.6716694,15.9339663 74.6992933,15.9339663 L59.979144,15.9339663 L59.979144,15.9339663 Z M87.9642187,15.9339663 C86.0194843,15.9339663 84.4380993,17.8143929 84.4380993,20.1272996 L84.4380993,21.8838756 C84.8123022,22.0380089 85.2135858,22.2430969 85.5575022,22.4507236 L85.6133828,22.4507236 C85.942559,22.6518223 86.2121291,22.8855609 86.5089052,23.1307236 C86.5214425,23.1488569 86.5527858,23.1125903 86.5647858,23.1307236 C88.400553,24.6619023 89.5312037,27.0112569 89.5312037,29.5905423 C89.5312037,32.6458276 87.8910545,35.3177743 85.4453828,36.7307236 L89.3073231,36.7307236 L89.3632037,36.7307236 C89.6064455,36.7307236 89.860559,36.7869369 90.0908157,36.8431503 L90.1466963,36.8431503 C90.3757351,36.9029903 90.6067261,36.9628303 90.8183381,37.0698169 L90.8742187,37.0698169 C91.0870396,37.1804303 91.2434604,37.3697423 91.4339201,37.5231503 C91.4464575,37.5412836 91.4778007,37.5050169 91.4898007,37.5231503 C92.483544,38.3425956 93.1129351,39.7198223 93.1129351,41.2633316 L93.1129351,44.4366649 L97.5345769,44.4366649 L97.5904575,44.4366649 L97.5904575,41.2633316 C97.5904575,40.0146703 98.0207918,38.8544996 98.7098604,38.0332409 C99.3965291,37.2319289 100.305269,36.7299983 101.340457,36.7299983 L105.258368,36.7299983 C104.966356,36.5613583 104.742296,36.3651556 104.474786,36.1631503 C102.520792,34.6695076 101.228517,32.2784463 101.228517,29.5898169 C101.228517,27.4283236 102.080875,25.4681103 103.411353,23.9799076 C104.204911,23.1008036 105.106398,22.3419236 106.20986,21.8831503 L106.265741,21.8831503 L106.265741,20.1265743 C106.265741,19.2592569 106.030595,18.4728143 105.650069,17.8031503 C105.523263,17.5801103 105.361926,17.3697636 105.202308,17.1799076 C105.193353,17.1617743 105.155204,17.1980409 105.146428,17.1799076 C104.995622,17.0003876 104.871986,16.8159716 104.698666,16.6698169 C104.686129,16.6516836 104.655144,16.6879503 104.642786,16.6698169 C104.470308,16.5283769 104.331001,16.3773263 104.139054,16.2732409 L104.083174,16.2732409 C103.891554,16.1735076 103.675837,16.1027876 103.467502,16.0465743 L103.411622,16.0465743 C103.202069,15.9939876 102.963753,15.9377743 102.73998,15.9341476 L102.684099,15.9341476 L87.96395,15.9341476 L87.9642187,15.9339663 Z M116.005263,15.9339663 C114.060529,15.9339663 112.479144,17.8143929 112.479144,20.1272996 L112.479144,21.8838756 C115.472822,23.1207503 117.572428,26.1321529 117.572428,29.5905423 C117.572428,32.6630543 115.89909,35.3237583 113.430637,36.7307236 L117.348547,36.7307236 C119.447938,36.7307236 121.154517,38.7670969 121.154517,41.2640569 L121.154517,44.4373903 L125.576159,44.4373903 L125.576159,41.2640569 C125.576159,38.7670969 127.282738,36.7307236 129.382129,36.7307236 L133.30004,36.7307236 C130.850911,35.3239396 129.214219,32.6632356 129.214219,29.5905423 C129.214219,26.1321529 131.275908,23.1207503 134.251532,21.8838756 L134.251532,20.1272996 C134.251532,19.2599823 134.016386,18.4735396 133.63586,17.8038756 C133.509054,17.5808356 133.347717,17.3704889 133.188099,17.1806329 C132.549663,16.4213903 131.697789,15.9339663 130.725413,15.9339663 L116.005263,15.9339663 L116.005263,15.9339663 Z M25.3895918,22.4507236 C21.5151858,22.4507236 18.3933231,25.6677583 18.3933231,29.5905423 C18.3933231,33.5131449 21.5151858,36.6739663 25.3895918,36.6739663 C29.2639978,36.6739663 32.4418306,33.5131449 32.4418306,29.5905423 C32.4418306,25.6677583 29.2639978,22.4507236 25.3895918,22.4507236 L25.3895918,22.4507236 Z M53.3746664,22.4507236 C51.4374724,22.4507236 49.7140575,23.2525796 48.4492933,24.5472996 C47.8169112,25.1946596 47.2913112,25.9607929 46.9380993,26.8139663 C46.5848873,27.6671396 46.3783978,28.6098916 46.3783978,29.5905423 C46.3783978,30.5711929 46.5848828,31.4626276 46.9380993,32.3105423 C47.2913112,33.1586383 47.8169112,33.9371023 48.4492933,34.5772089 C49.7140575,35.8577849 51.4374724,36.6739663 53.3746664,36.6739663 C53.8405888,36.6739663 54.3324634,36.5905529 54.7739201,36.5035129 C57.9777231,35.8449103 60.4269052,33.0224569 60.4269052,29.5899983 C60.4269052,25.6672143 57.2490724,22.4501796 53.3746664,22.4501796 L53.3746664,22.4507236 Z M81.359741,22.4507236 C77.4853351,22.4507236 74.3634724,25.6677583 74.3634724,29.5905423 C74.3634724,33.5131449 77.4853351,36.6739663 81.359741,36.6739663 C83.7812515,36.6739663 85.9650724,35.4408996 87.2366067,33.5573903 C87.7452097,32.8037689 88.1111201,31.9310116 88.3000396,31.0072996 C88.3944276,30.5454436 88.4119799,30.0808676 88.4119799,29.5905423 C88.4119799,29.1002169 88.3940694,28.5806969 88.3000396,28.1173903 C88.1111291,27.1905956 87.7452097,26.3274489 87.2366067,25.5672996 C85.9650724,23.6671076 83.7812515,22.4507236 81.359741,22.4507236 L81.359741,22.4507236 Z M109.344816,22.4507236 C105.47041,22.4507236 102.348547,25.6677583 102.348547,29.5905423 C102.348547,32.0421689 103.622374,34.1565156 105.482875,35.4272996 L105.538756,35.4272996 C105.899275,35.6699236 106.25444,35.9348516 106.658159,36.1072996 L106.71404,36.1072996 C107.117723,36.2759396 107.507383,36.4135716 107.945383,36.5040569 C108.418326,36.6056036 108.897037,36.6745103 109.400607,36.6745103 C111.316129,36.6563769 113.059353,35.8461796 114.32598,34.5777529 C114.658201,34.2493583 115.014834,33.9468943 115.277472,33.5579343 C115.786075,32.8043129 116.151986,31.9315556 116.340905,31.0078436 C116.435293,30.5459876 116.452846,30.0814116 116.452846,29.5910863 C116.452846,29.1007609 116.434935,28.5812409 116.340905,28.1179343 C116.054589,26.7133263 115.300649,25.5230543 114.32598,24.5478436 C113.698219,23.9122703 112.967634,23.3798756 112.143144,23.0177529 L112.087263,23.0177529 C111.682219,22.8436729 111.294672,22.6598009 110.85592,22.5644196 L110.80004,22.5644196 C110.342356,22.4683129 109.829114,22.4519929 109.344816,22.4519929 L109.344816,22.4507236 Z M137.441831,22.4507236 C133.567425,22.4507236 130.445562,25.6677583 130.445562,29.5905423 C130.445562,33.5131449 133.567425,36.6739663 137.441831,36.6739663 C141.316237,36.6739663 144.494069,33.5131449 144.494069,29.5905423 C144.494069,25.6677583 141.316237,22.4507236 137.441831,22.4507236 L137.441831,22.4507236 Z M18.0575022,37.6373903 C16.1127679,37.6373903 14.5313828,39.5176356 14.5313828,41.8305423 L14.5313828,62.0038756 C14.5313828,64.3166009 16.1127679,66.1406329 18.0575022,66.1406329 L32.7776515,66.1406329 C34.7223858,66.1406329 36.3037709,64.3166009 36.3037709,62.0038756 L36.3037709,41.8305423 C36.3037709,39.5176356 34.7223858,37.6373903 32.7776515,37.6373903 L18.0575022,37.6373903 L18.0575022,37.6373903 Z M46.0425769,37.6373903 C45.7994784,37.6373903 45.5443261,37.6381156 45.3149649,37.6936036 C44.1913888,37.9886329 43.2362067,38.9518756 42.7963082,40.1869369 C42.617741,40.6885049 42.5164575,41.2520889 42.5164575,41.8301796 L42.5164575,62.0035129 C42.5164575,62.5817849 42.6176515,63.0940516 42.7963082,63.5901796 C43.1535858,64.5826169 43.8558187,65.3861049 44.6992933,65.8002703 C44.910144,65.9036303 45.0856037,65.9725369 45.3149649,66.0269369 C45.5602127,66.0904036 45.7812455,66.1393636 46.0425769,66.1393636 L60.7627261,66.1393636 C62.7074604,66.1393636 64.2888455,64.3153316 64.2888455,62.0026063 L64.2888455,41.8292729 C64.2888455,39.5163663 62.7074604,37.6361209 60.7627261,37.6361209 L46.0425769,37.6361209 L46.0425769,37.6373903 Z M74.0276515,37.6373903 C72.0829172,37.6373903 70.5015321,39.5176356 70.5015321,41.8305423 L70.5015321,62.0038756 C70.5015321,64.3166009 72.0829172,66.1406329 74.0276515,66.1406329 L88.7478007,66.1406329 C89.7201769,66.1406329 90.6280216,65.6390649 91.2664575,64.8939663 C91.7452933,64.3350969 92.0768336,63.6108516 92.21795,62.7973903 C92.2650545,62.5261156 92.2738306,62.2931023 92.2738306,62.0038756 L92.2738306,41.8305423 C92.2738306,41.5414969 92.2648754,41.2533583 92.21795,40.9806329 C92.0768157,40.1622756 91.7452933,39.3966863 91.2664575,38.8272996 C90.6280216,38.0680569 89.7201769,37.6373903 88.7478007,37.6373903 L74.0276515,37.6373903 L74.0276515,37.6373903 Z M102.012726,37.6373903 C100.067992,37.6373903 98.4866067,39.5176356 98.4866067,41.8305423 L98.4866067,62.0038756 C98.4866067,63.4494649 99.1156933,64.6663929 100.053771,65.4038756 L100.109651,65.4038756 C100.286607,65.5398756 100.472123,65.7038009 100.669353,65.8006329 L100.725234,65.8006329 C100.921734,65.8931129 101.128756,65.9765263 101.340905,66.0272996 L101.396786,66.0272996 C101.608734,66.0726329 101.789078,66.1397263 102.012457,66.1397263 C102.032159,66.1400889 102.048637,66.1397263 102.068338,66.1397263 L116.732517,66.1397263 C117.704893,66.1397263 118.612738,65.6381583 119.251174,64.8930596 C119.420786,64.6990329 119.621401,64.5577743 119.754905,64.3263929 C120.008589,63.8868409 120.164553,63.3388516 120.258637,62.7964836 C120.305741,62.5252089 120.314517,62.2921956 120.314517,62.0029689 L120.314517,41.8296356 C120.314517,41.5405903 120.305562,41.2524516 120.258637,40.9797263 C120.164607,40.4342756 120.008589,39.8958969 119.754905,39.4498169 C119.621472,39.2149903 119.42084,39.0242276 119.251174,38.8263929 C119.100368,38.6468729 118.979257,38.4610063 118.803413,38.3164836 L118.747532,38.3164836 C118.57201,38.1750436 118.383789,38.0219983 118.187831,37.9197263 L118.13195,37.9197263 C117.936905,37.8218063 117.727299,37.7492729 117.516278,37.6930596 L117.460398,37.6930596 C117.248562,37.6422863 117.01244,37.6404729 116.788756,37.6368463 L116.732875,37.6368463 L102.012726,37.6368463 L102.012726,37.6373903 Z M130.109741,37.6373903 C128.165007,37.6373903 126.583622,39.5176356 126.583622,41.8305423 L126.583622,62.0038756 C126.583622,64.3166009 128.165007,66.1406329 130.109741,66.1406329 L144.82989,66.1406329 C146.774625,66.1406329 148.35601,64.3166009 148.35601,62.0038756 L148.35601,41.8305423 C148.35601,39.5176356 146.774625,37.6373903 144.82989,37.6373903 L130.109741,37.6373903 L130.109741,37.6373903 Z" id="Shape"></path>
                </g>
            </g>
        </g>
    </g>
</svg>