<?xml version="1.0" encoding="UTF-8" standalone="no"?>
<svg width="45px" height="50px" viewBox="0 0 45 50" version="1.1" xmlns="http://www.w3.org/2000/svg" xmlns:xlink="http://www.w3.org/1999/xlink" xmlns:sketch="http://www.bohemiancoding.com/sketch/ns">
    <!-- Generator: Sketch 3.3.2 (12043) - http://www.bohemiancoding.com/sketch -->
    <title>noun_31061_cc</title>
    <desc>Created with Sketch.</desc>
    <defs></defs>
    <g id="Home-v4" stroke="none" stroke-width="1" fill="none" fill-rule="evenodd" sketch:type="MSPage">
        <g id="Desktop" sketch:type="MSArtboardGroup" transform="translate(-200.000000, -3238.000000)" fill="#333333">
            <g id="Group" sketch:type="MSLayerGroup" transform="translate(114.000000, 3238.000000)">
                <g id="noun_31061_cc" transform="translate(86.416040, 0.000000)" sketch:type="MSShapeGroup">
                    <path d="M40.8571429,9.375 L31.4285714,9.375 L31.4285714,0 L40.8571429,9.375 L40.8571429,9.375 Z M44,12.5 L44,50 L0,50 L0,0 L28.2857143,0 L28.2857143,12.5 L44,12.5 L44,12.5 Z M6.28571429,12.5 L25.1428571,12.5 L25.1428571,9.375 L6.28571429,9.375 L6.28571429,12.5 L6.28571429,12.5 Z M37.7142857,37.5 L6.28571429,37.5 L6.28571429,40.625 L37.7142857,40.625 L37.7142857,37.5 L37.7142857,37.5 Z M37.7142857,28.125 L6.28571429,28.125 L6.28571429,31.25 L37.7142857,31.25 L37.7142857,28.125 L37.7142857,28.125 Z M37.7142857,18.75 L6.28571429,18.75 L6.28571429,21.875 L37.7142857,21.875 L37.7142857,18.75 L37.7142857,18.75 Z" id="Shape"></path>
                </g>
            </g>
        </g>
    </g>
</svg>